<mxfile host="app.diagrams.net" modified="2022-03-23T03:15:16.336Z" agent="5.0 (Macintosh; Intel Mac OS X 10_15_7) AppleWebKit/537.36 (KHTML, like Gecko) Chrome/99.0.4844.83 Safari/537.36" etag="4B8bHv-EWHoUUre-jktZ" version="17.1.3" type="github">
  <diagram id="vb-FQpTBXWfAdsvukgkN" name="Page-1">
    <mxGraphModel dx="1183" dy="768" grid="1" gridSize="10" guides="1" tooltips="1" connect="1" arrows="1" fold="1" page="1" pageScale="1" pageWidth="1654" pageHeight="1169" math="0" shadow="0">
      <root>
        <mxCell id="0" />
        <mxCell id="1" parent="0" />
        <mxCell id="ABQZlwv3Uab-juvKAk27-1" value="AgentLauncher" style="shape=umlLifeline;perimeter=lifelinePerimeter;whiteSpace=wrap;html=1;container=1;collapsible=0;recursiveResize=0;outlineConnect=0;fillColor=#1ba1e2;fontColor=#ffffff;strokeColor=#006EAF;" vertex="1" parent="1">
          <mxGeometry x="260" y="200" width="100" height="490" as="geometry" />
        </mxCell>
        <mxCell id="ABQZlwv3Uab-juvKAk27-3" value="" style="html=1;points=[];perimeter=orthogonalPerimeter;" vertex="1" parent="ABQZlwv3Uab-juvKAk27-1">
          <mxGeometry x="45" y="80" width="10" height="20" as="geometry" />
        </mxCell>
        <mxCell id="ABQZlwv3Uab-juvKAk27-6" value="" style="html=1;points=[];perimeter=orthogonalPerimeter;" vertex="1" parent="ABQZlwv3Uab-juvKAk27-1">
          <mxGeometry x="46" y="120" width="10" height="70" as="geometry" />
        </mxCell>
        <mxCell id="ABQZlwv3Uab-juvKAk27-7" value="writeAttachResult()" style="edgeStyle=orthogonalEdgeStyle;html=1;align=left;spacingLeft=2;endArrow=block;rounded=0;entryX=1;entryY=0;" edge="1" target="ABQZlwv3Uab-juvKAk27-6" parent="ABQZlwv3Uab-juvKAk27-1">
          <mxGeometry relative="1" as="geometry">
            <mxPoint x="51" y="100" as="sourcePoint" />
            <Array as="points">
              <mxPoint x="81" y="100" />
            </Array>
          </mxGeometry>
        </mxCell>
        <mxCell id="ABQZlwv3Uab-juvKAk27-10" value="" style="html=1;verticalAlign=bottom;endArrow=open;endSize=8;exitX=0;exitY=0.95;rounded=0;entryX=1;entryY=0.5;entryDx=0;entryDy=0;" edge="1" parent="ABQZlwv3Uab-juvKAk27-1" target="ABQZlwv3Uab-juvKAk27-11">
          <mxGeometry relative="1" as="geometry">
            <mxPoint x="-70" y="190" as="targetPoint" />
            <mxPoint x="46" y="190" as="sourcePoint" />
          </mxGeometry>
        </mxCell>
        <mxCell id="ABQZlwv3Uab-juvKAk27-12" value="文件写入" style="edgeLabel;html=1;align=center;verticalAlign=middle;resizable=0;points=[];" vertex="1" connectable="0" parent="ABQZlwv3Uab-juvKAk27-10">
          <mxGeometry x="0.1111" y="-2" relative="1" as="geometry">
            <mxPoint as="offset" />
          </mxGeometry>
        </mxCell>
        <mxCell id="ABQZlwv3Uab-juvKAk27-13" value="" style="html=1;points=[];perimeter=orthogonalPerimeter;" vertex="1" parent="ABQZlwv3Uab-juvKAk27-1">
          <mxGeometry x="46" y="210" width="10" height="230" as="geometry" />
        </mxCell>
        <mxCell id="ABQZlwv3Uab-juvKAk27-14" value="install()" style="edgeStyle=orthogonalEdgeStyle;html=1;align=left;spacingLeft=2;endArrow=block;rounded=0;entryX=1;entryY=0;exitX=1.045;exitY=0.563;exitDx=0;exitDy=0;exitPerimeter=0;" edge="1" target="ABQZlwv3Uab-juvKAk27-13" parent="ABQZlwv3Uab-juvKAk27-1" source="ABQZlwv3Uab-juvKAk27-6">
          <mxGeometry relative="1" as="geometry">
            <mxPoint x="60" y="160" as="sourcePoint" />
            <Array as="points">
              <mxPoint x="81" y="159" />
              <mxPoint x="81" y="210" />
            </Array>
          </mxGeometry>
        </mxCell>
        <mxCell id="ABQZlwv3Uab-juvKAk27-2" value="JVM attach" style="rounded=0;whiteSpace=wrap;html=1;fillColor=#fa6800;fontColor=#000000;strokeColor=#C73500;" vertex="1" parent="1">
          <mxGeometry x="120" y="260" width="60" height="40" as="geometry" />
        </mxCell>
        <mxCell id="ABQZlwv3Uab-juvKAk27-4" value="agentmain()" style="html=1;verticalAlign=bottom;endArrow=block;entryX=0;entryY=0;rounded=0;exitX=1;exitY=0.5;exitDx=0;exitDy=0;" edge="1" target="ABQZlwv3Uab-juvKAk27-3" parent="1" source="ABQZlwv3Uab-juvKAk27-2">
          <mxGeometry relative="1" as="geometry">
            <mxPoint x="235" y="280" as="sourcePoint" />
          </mxGeometry>
        </mxCell>
        <mxCell id="ABQZlwv3Uab-juvKAk27-11" value=".simulator.token" style="rounded=0;whiteSpace=wrap;html=1;fillColor=#fa6800;fontColor=#000000;strokeColor=#C73500;" vertex="1" parent="1">
          <mxGeometry x="80" y="370" width="100" height="40" as="geometry" />
        </mxCell>
        <mxCell id="ABQZlwv3Uab-juvKAk27-15" value="CoreConfig&lt;br&gt;(配置中心)" style="shape=umlLifeline;perimeter=lifelinePerimeter;whiteSpace=wrap;html=1;container=1;collapsible=0;recursiveResize=0;outlineConnect=0;fillColor=#1ba1e2;fontColor=#ffffff;strokeColor=#006EAF;" vertex="1" parent="1">
          <mxGeometry x="450" y="200" width="100" height="490" as="geometry" />
        </mxCell>
        <mxCell id="ABQZlwv3Uab-juvKAk27-27" value="" style="html=1;points=[];perimeter=orthogonalPerimeter;" vertex="1" parent="ABQZlwv3Uab-juvKAk27-15">
          <mxGeometry x="45" y="240" width="10" height="30" as="geometry" />
        </mxCell>
        <mxCell id="ABQZlwv3Uab-juvKAk27-23" value="JettyCoreServer&lt;br&gt;" style="shape=umlLifeline;perimeter=lifelinePerimeter;whiteSpace=wrap;html=1;container=1;collapsible=0;recursiveResize=0;outlineConnect=0;fillColor=#1ba1e2;fontColor=#ffffff;strokeColor=#006EAF;" vertex="1" parent="1">
          <mxGeometry x="600" y="200" width="100" height="490" as="geometry" />
        </mxCell>
        <mxCell id="ABQZlwv3Uab-juvKAk27-30" value="" style="html=1;points=[];perimeter=orthogonalPerimeter;" vertex="1" parent="ABQZlwv3Uab-juvKAk27-23">
          <mxGeometry x="45" y="280" width="10" height="30" as="geometry" />
        </mxCell>
        <mxCell id="ABQZlwv3Uab-juvKAk27-33" value="" style="html=1;points=[];perimeter=orthogonalPerimeter;" vertex="1" parent="ABQZlwv3Uab-juvKAk27-23">
          <mxGeometry x="45" y="320.51" width="10" height="69.49" as="geometry" />
        </mxCell>
        <mxCell id="ABQZlwv3Uab-juvKAk27-24" value="ModuleHttpServlet&lt;br&gt;(请求处理)" style="shape=umlLifeline;perimeter=lifelinePerimeter;whiteSpace=wrap;html=1;container=1;collapsible=0;recursiveResize=0;outlineConnect=0;fillColor=#1ba1e2;fontColor=#ffffff;strokeColor=#006EAF;" vertex="1" parent="1">
          <mxGeometry x="730" y="200" width="120" height="490" as="geometry" />
        </mxCell>
        <mxCell id="ABQZlwv3Uab-juvKAk27-35" value="" style="html=1;points=[];perimeter=orthogonalPerimeter;" vertex="1" parent="ABQZlwv3Uab-juvKAk27-24">
          <mxGeometry x="55" y="350" width="10" height="20" as="geometry" />
        </mxCell>
        <mxCell id="ABQZlwv3Uab-juvKAk27-26" value="CoreModuleManager&lt;br&gt;(模块生命周期管理)" style="shape=umlLifeline;perimeter=lifelinePerimeter;whiteSpace=wrap;html=1;container=1;collapsible=0;recursiveResize=0;outlineConnect=0;fillColor=#1ba1e2;fontColor=#ffffff;strokeColor=#006EAF;" vertex="1" parent="1">
          <mxGeometry x="880" y="200" width="120" height="490" as="geometry" />
        </mxCell>
        <mxCell id="ABQZlwv3Uab-juvKAk27-41" value="" style="html=1;points=[];perimeter=orthogonalPerimeter;" vertex="1" parent="ABQZlwv3Uab-juvKAk27-26">
          <mxGeometry x="55.06" y="390" width="10" height="30" as="geometry" />
        </mxCell>
        <mxCell id="ABQZlwv3Uab-juvKAk27-44" value="" style="html=1;points=[];perimeter=orthogonalPerimeter;" vertex="1" parent="ABQZlwv3Uab-juvKAk27-26">
          <mxGeometry x="55.06" y="440" width="10" height="20" as="geometry" />
        </mxCell>
        <mxCell id="ABQZlwv3Uab-juvKAk27-45" value="loadModules()" style="edgeStyle=orthogonalEdgeStyle;html=1;align=left;spacingLeft=2;endArrow=block;rounded=0;entryX=1;entryY=0;" edge="1" target="ABQZlwv3Uab-juvKAk27-44" parent="ABQZlwv3Uab-juvKAk27-26">
          <mxGeometry relative="1" as="geometry">
            <mxPoint x="60.059999999999945" y="420" as="sourcePoint" />
            <Array as="points">
              <mxPoint x="90.05999999999995" y="420" />
            </Array>
          </mxGeometry>
        </mxCell>
        <mxCell id="ABQZlwv3Uab-juvKAk27-28" value="invoke toConfigure()" style="html=1;verticalAlign=bottom;endArrow=block;entryX=0;entryY=0;rounded=0;dashed=1;" edge="1" target="ABQZlwv3Uab-juvKAk27-27" parent="1">
          <mxGeometry relative="1" as="geometry">
            <mxPoint x="320" y="440" as="sourcePoint" />
          </mxGeometry>
        </mxCell>
        <mxCell id="ABQZlwv3Uab-juvKAk27-31" value="invoke getInstance()" style="html=1;verticalAlign=bottom;endArrow=block;entryX=0;entryY=0;rounded=0;dashed=1;" edge="1" target="ABQZlwv3Uab-juvKAk27-30" parent="1">
          <mxGeometry x="0.5251" relative="1" as="geometry">
            <mxPoint x="320" y="480" as="sourcePoint" />
            <mxPoint as="offset" />
          </mxGeometry>
        </mxCell>
        <mxCell id="ABQZlwv3Uab-juvKAk27-34" value="invoke bind()" style="html=1;verticalAlign=bottom;endArrow=block;entryX=0;entryY=0;rounded=0;dashed=1;exitX=1;exitY=0.477;exitDx=0;exitDy=0;exitPerimeter=0;" edge="1" parent="1" target="ABQZlwv3Uab-juvKAk27-33" source="ABQZlwv3Uab-juvKAk27-13">
          <mxGeometry x="0.5251" relative="1" as="geometry">
            <mxPoint x="320" y="524" as="sourcePoint" />
            <mxPoint as="offset" />
          </mxGeometry>
        </mxCell>
        <mxCell id="ABQZlwv3Uab-juvKAk27-36" value="new" style="html=1;verticalAlign=bottom;endArrow=block;entryX=0;entryY=0;rounded=0;exitX=0.983;exitY=0.417;exitDx=0;exitDy=0;exitPerimeter=0;" edge="1" target="ABQZlwv3Uab-juvKAk27-35" parent="1" source="ABQZlwv3Uab-juvKAk27-33">
          <mxGeometry relative="1" as="geometry">
            <mxPoint x="660" y="550" as="sourcePoint" />
          </mxGeometry>
        </mxCell>
        <mxCell id="ABQZlwv3Uab-juvKAk27-38" value="" style="html=1;points=[];perimeter=orthogonalPerimeter;" vertex="1" parent="1">
          <mxGeometry x="935.06" y="529.51" width="10" height="20" as="geometry" />
        </mxCell>
        <mxCell id="ABQZlwv3Uab-juvKAk27-39" value="new" style="html=1;verticalAlign=bottom;endArrow=block;entryX=0;entryY=0;rounded=0;exitX=0.983;exitY=0.134;exitDx=0;exitDy=0;exitPerimeter=0;" edge="1" parent="1" target="ABQZlwv3Uab-juvKAk27-38" source="ABQZlwv3Uab-juvKAk27-33">
          <mxGeometry x="0.3903" relative="1" as="geometry">
            <mxPoint x="660" y="530" as="sourcePoint" />
            <mxPoint as="offset" />
          </mxGeometry>
        </mxCell>
        <mxCell id="ABQZlwv3Uab-juvKAk27-40" value="reset()" style="html=1;verticalAlign=bottom;endArrow=block;rounded=0;exitX=0.983;exitY=0.134;exitDx=0;exitDy=0;exitPerimeter=0;" edge="1" parent="1">
          <mxGeometry x="0.4342" relative="1" as="geometry">
            <mxPoint x="655.8300000000002" y="590.3116599999998" as="sourcePoint" />
            <mxPoint x="940" y="590" as="targetPoint" />
            <mxPoint as="offset" />
          </mxGeometry>
        </mxCell>
        <mxCell id="ABQZlwv3Uab-juvKAk27-42" value="" style="html=1;points=[];perimeter=orthogonalPerimeter;" vertex="1" parent="1">
          <mxGeometry x="645" y="610" width="10" height="30" as="geometry" />
        </mxCell>
        <mxCell id="ABQZlwv3Uab-juvKAk27-43" value="invoke getLocal()" style="html=1;verticalAlign=bottom;endArrow=block;entryX=0;entryY=0;rounded=0;dashed=1;exitX=0.975;exitY=0.866;exitDx=0;exitDy=0;exitPerimeter=0;" edge="1" parent="1" target="ABQZlwv3Uab-juvKAk27-42" source="ABQZlwv3Uab-juvKAk27-13">
          <mxGeometry x="0.5251" relative="1" as="geometry">
            <mxPoint x="320" y="610" as="sourcePoint" />
            <mxPoint as="offset" />
          </mxGeometry>
        </mxCell>
      </root>
    </mxGraphModel>
  </diagram>
</mxfile>
